<svg width="18" height="18" viewBox="0 0 18 18" fill="none" xmlns="http://www.w3.org/2000/svg">
<g clip-path="url(#clip0_2_833)">
<path d="M9 1.81148e-06C6.90154 -0.00132902 4.86857 0.730662 3.25261 2.06941C1.63666 3.40816 0.539301 5.2695 0.15029 7.33159C-0.238721 9.39368 0.105066 11.5269 1.12221 13.3624C2.13935 15.1978 3.76591 16.6202 5.72063 17.3835C5.64188 16.6714 5.56988 15.5768 5.751 14.7994C5.91525 14.0963 6.80625 10.3253 6.80625 10.3253C6.80625 10.3253 6.53738 9.78638 6.53738 8.98988C6.53738 7.73775 7.263 6.804 8.16638 6.804C8.93363 6.804 9.30488 7.38 9.30488 8.07188C9.30488 8.84363 8.81325 9.99788 8.559 11.0678C8.3475 11.9633 9.009 12.6945 9.89213 12.6945C11.4919 12.6945 12.7215 11.007 12.7215 8.5725C12.7215 6.41813 11.1724 4.91175 8.96175 4.91175C6.40125 4.91175 4.89825 6.83213 4.89825 8.81663C4.89825 9.59063 5.19638 10.4198 5.56763 10.8709C5.5996 10.9049 5.62221 10.9466 5.63325 10.9919C5.64429 11.0373 5.64339 11.0847 5.63063 11.1296C5.562 11.4131 5.41013 12.0251 5.38088 12.15C5.3415 12.3143 5.25038 12.3491 5.07938 12.2704C3.95438 11.7473 3.25238 10.1036 3.25238 8.78288C3.25238 5.9445 5.31563 3.33788 9.19913 3.33788C12.321 3.33788 14.7476 5.562 14.7476 8.53538C14.7476 11.637 12.7913 14.1334 10.0778 14.1334C9.16538 14.1334 8.30813 13.6598 8.0145 13.0995L7.45425 15.2393C7.25063 16.0211 6.70163 17.001 6.33488 17.5984C7.57235 17.981 8.87782 18.092 10.1621 17.9238C11.4464 17.7556 12.6793 17.3122 13.7765 16.6238C14.8737 15.9354 15.8094 15.0183 16.5197 13.9352C17.2299 12.852 17.698 11.6283 17.892 10.3476C18.0859 9.06694 18.0011 7.7595 17.6434 6.5146C17.2857 5.2697 16.6636 4.11667 15.8194 3.13429C14.9752 2.15191 13.9289 1.36332 12.752 0.822393C11.5751 0.281466 10.2953 0.000947591 9 1.81148e-06Z" fill="black"/>
</g>
<defs>
<clipPath id="clip0_2_833">
<rect width="18" height="18" fill="white"/>
</clipPath>
</defs>
</svg>
