<svg width="15" height="29" viewBox="0 0 15 29" fill="none" xmlns="http://www.w3.org/2000/svg">
<mask id="mask0_99_5" style="mask-type:alpha" maskUnits="userSpaceOnUse" x="0" y="0" width="15" height="29">
<rect width="15" height="29" fill="#D9D9D9"/>
</mask>
<g mask="url(#mask0_99_5)">
<path fill-rule="evenodd" clip-rule="evenodd" d="M1 21.3236C1 24.5867 3.93593 27.0098 7.6553 27.0098C11.0814 27.0098 14.3106 25.0071 14.3106 21.5176C14.3106 18.416 11.7982 16.1869 9.48268 13.9567C7.49424 12.018 5.60025 10.0467 5.60025 7.49459C5.60025 5.03893 6.64418 4.42551 7.72092 4.42551C8.92791 4.42551 9.8416 5.26539 9.8416 7.72105C9.8416 8.30296 9.80879 8.94888 9.77598 9.43331H14.1505C14.1505 6.33174 11.4423 3.97258 7.91877 3.97258C4.65674 3.97258 1.49214 5.81383 1.49214 9.14186C1.49214 12.5024 3.93891 14.7316 6.25544 16.8968C8.3105 18.8355 10.2323 20.7368 10.2323 23.3953C10.2323 25.8834 8.99253 26.5618 7.91579 26.5618C6.676 26.5618 5.59926 25.722 5.59926 23.2988C5.59926 22.6529 5.63207 21.877 5.66488 21.3295H1V21.3236ZM21.3477 26.6869V20.1598L22.7834 18.3501L27.0903 26.6859H31.7562L25.6537 14.7966L29.8622 9.5623H29.213L21.3507 19.3199V1H16.9463V26.6869H21.3507H21.3477ZM36.595 6.97766C36.9198 6.97983 37.2416 6.91755 37.5416 6.7945C37.8416 6.67145 38.1137 6.49012 38.3417 6.26122C38.5698 6.03233 38.7493 5.7605 38.8695 5.46178C38.9897 5.16306 39.0483 4.84352 39.0418 4.52201C39.0387 4.03941 38.8911 3.56858 38.6177 3.16907C38.3443 2.76956 37.9575 2.45931 37.506 2.27755C37.0546 2.0958 36.5589 2.05072 36.0816 2.148C35.6043 2.24528 35.1668 2.48056 34.8245 2.82407C34.4823 3.16759 34.2506 3.60392 34.1587 4.07787C34.0668 4.55182 34.119 5.04211 34.3085 5.48672C34.498 5.93133 34.8164 6.31029 35.2234 6.57568C35.6304 6.84107 36.1078 6.98096 36.595 6.97766V6.97766ZM38.7823 26.6869V9.5623H34.3779V26.6869H38.7823V26.6869ZM51.8066 26.6869H56.211V14.4775C56.2478 13.7915 56.1407 13.1054 55.8964 12.4624C55.6521 11.8195 55.2759 11.2336 54.7915 10.7418C54.3072 10.25 53.7252 9.86296 53.0822 9.60504C52.4393 9.34712 51.7494 9.22395 51.056 9.24328C50.0664 9.21558 49.0914 9.48456 48.2589 10.015C47.4263 10.5454 46.7749 11.3125 46.3901 12.2159V9.5623H41.9857V26.6869H46.3901V14.0217C46.3901 12.1804 47.5653 10.8226 49.1312 10.8226C50.6971 10.8226 51.8066 12.1794 51.8066 14.0217V26.6869V26.6869ZM69.2055 26.6869H73.6098V14.4775C73.6467 13.7915 73.5395 13.1054 73.2952 12.4624C73.0509 11.8195 72.6747 11.2336 72.1904 10.7418C71.706 10.25 71.124 9.86296 70.4811 9.60504C69.8382 9.34712 69.1482 9.22395 68.4548 9.24328C67.4652 9.21558 66.4903 9.48456 65.6577 10.015C64.8251 10.5454 64.1738 11.3125 63.7889 12.2159V9.5623H59.3845V26.6869H63.7889V14.0217C63.7889 12.1804 64.9641 10.8226 66.53 10.8226C68.0959 10.8226 69.2055 12.1794 69.2055 14.0217V26.6869V26.6869ZM81.3349 17.8775C82.4547 17.8808 83.5503 17.5549 84.483 16.9412C85.4157 16.3275 86.1435 15.4536 86.5744 14.4299C87.0052 13.4063 87.1197 12.2791 86.9033 11.1911C86.6869 10.103 86.1493 9.10298 85.3587 8.31764C84.5681 7.5323 83.5599 6.99695 82.4619 6.77938C81.3639 6.56181 80.2254 6.6718 79.1905 7.09542C78.1556 7.51903 77.271 8.23723 76.6485 9.15908C76.026 10.0809 75.6937 11.165 75.6937 12.274C75.6715 13.0145 75.8022 13.7518 76.0778 14.4406C76.3533 15.1294 76.7679 15.7553 77.2962 16.2799C77.8245 16.8044 78.4554 17.2167 79.1502 17.4914C79.845 17.7661 80.5891 17.8975 81.3369 17.8775H81.3349ZM81.3349 17.6736C80.2568 17.6734 79.203 17.3566 78.3066 16.7633C77.4103 16.17 76.7117 15.3267 76.2993 14.3402C75.8869 13.3537 75.779 12.2683 75.9895 11.2211C76.1999 10.1739 76.7192 9.21206 77.4816 8.45714C78.244 7.70221 79.2154 7.18814 80.2728 6.97991C81.3302 6.77168 82.4262 6.87865 83.4223 7.28729C84.4183 7.69593 85.2696 8.3879 85.8686 9.27569C86.4675 10.1635 86.7872 11.2072 86.7872 12.2749C86.8103 12.99 86.6851 13.7021 86.4194 14.3673C86.1536 15.0325 85.753 15.6367 85.2422 16.1425C84.7314 16.6484 84.1213 17.0451 83.4497 17.3083C82.778 17.5715 82.0589 17.6955 81.3369 17.6727L81.3349 17.6736ZM78.6883 15.9791H80.6698V12.336H80.9392L82.5399 15.9791H84.6636L82.8412 12.1962C83.2245 12.09 83.5634 11.8652 83.8085 11.5547C84.0535 11.2441 84.1919 10.8641 84.2033 10.4701C84.1828 10.1943 84.1066 9.92541 83.9791 9.67939C83.8516 9.43336 83.6754 9.21525 83.461 9.03805C83.2467 8.86084 82.9985 8.72815 82.7313 8.64787C82.4641 8.5676 82.1833 8.54138 81.9056 8.57078H78.6883V15.9791ZM81.0337 8.77558C81.6839 8.77558 82.1591 9.51307 82.1591 10.4701C82.1591 11.4272 81.6839 12.1341 81.0337 12.1341H80.6698V8.7746H81.0337V8.77558Z" fill="#BD916A"/>
</g>
</svg>
