<svg width="86" height="26" viewBox="0 0 86 26" fill="none" xmlns="http://www.w3.org/2000/svg">
<path fill-rule="evenodd" clip-rule="evenodd" d="M0.0100098 20.31C0.0100098 23.573 2.94594 25.9962 6.66531 25.9962C10.0914 25.9962 13.3206 23.9935 13.3206 20.5039C13.3206 17.4024 10.8082 15.1732 8.49269 12.943C6.50425 11.0043 4.61026 9.03306 4.61026 6.48091C4.61026 4.02526 5.65419 3.41184 6.73093 3.41184C7.93792 3.41184 8.85161 4.25172 8.85161 6.70738C8.85161 7.28929 8.8188 7.93521 8.78599 8.41964H13.1606C13.1606 5.31807 10.4523 2.95891 6.92878 2.95891C3.66675 2.95891 0.502147 4.80016 0.502147 8.12819C0.502147 11.4887 2.94892 13.7179 5.26545 15.8831C7.32051 17.8218 9.24233 19.7231 9.24233 22.3816C9.24233 24.8698 8.00254 25.5482 6.9258 25.5482C5.68601 25.5482 4.60927 24.7083 4.60927 22.2851C4.60927 21.6392 4.64208 20.8633 4.67489 20.3159H0.0100098V20.31ZM20.3577 25.6732V19.1461L21.7934 17.3364L26.1003 25.6722H30.7662L24.6637 13.7829L28.8722 8.54863H28.223L20.3607 18.3063V-0.0136719H15.9563V25.6732H20.3607H20.3577ZM35.6051 5.96399C35.9298 5.96616 36.2516 5.90388 36.5516 5.78083C36.8516 5.65778 37.1237 5.47645 37.3517 5.24755C37.5798 5.01865 37.7593 4.74682 37.8795 4.44811C37.9998 4.14939 38.0583 3.82985 38.0518 3.50833C38.0487 3.02574 37.9011 2.55491 37.6277 2.1554C37.3543 1.75589 36.9675 1.44563 36.516 1.26388C36.0646 1.08213 35.5689 1.03705 35.0916 1.13433C34.6143 1.23161 34.1768 1.46688 33.8346 1.8104C33.4923 2.15392 33.2606 2.59025 33.1687 3.0642C33.0768 3.53815 33.129 4.02844 33.3185 4.47305C33.508 4.91766 33.8264 5.29662 34.2334 5.56201C34.6404 5.8274 35.1178 5.96729 35.6051 5.96399ZM37.7923 25.6732V8.54863H33.3879V25.6732H37.7923ZM50.8166 25.6732H55.221V13.4639C55.2578 12.7779 55.1507 12.0917 54.9064 11.4488C54.6621 10.8058 54.2859 10.2199 53.8015 9.72814C53.3172 9.23634 52.7352 8.84928 52.0923 8.59137C51.4493 8.33345 50.7594 8.21027 50.066 8.22961C49.0764 8.2019 48.1015 8.47089 47.2689 9.00131C46.4363 9.53174 45.7849 10.2989 45.4001 11.2022V8.54863H40.9957V25.6732H45.4001V13.008C45.4001 11.1667 46.5753 9.80895 48.1412 9.80895C49.7071 9.80895 50.8166 11.1658 50.8166 13.008V25.6732ZM68.2155 25.6732H72.6199V13.4639C72.6567 12.7779 72.5495 12.0917 72.3052 11.4488C72.0609 10.8058 71.6847 10.2199 71.2004 9.72814C70.716 9.23634 70.134 8.84928 69.4911 8.59137C68.8482 8.33345 68.1582 8.21027 67.4648 8.22961C66.4753 8.2019 65.5003 8.47089 64.6677 9.00131C63.8351 9.53174 63.1838 10.2989 62.799 11.2022V8.54863H58.3946V25.6732H62.799V13.008C62.799 11.1667 63.9741 9.80895 65.54 9.80895C67.1059 9.80895 68.2155 11.1658 68.2155 13.008V25.6732ZM80.3449 16.8638C81.4647 16.8671 82.5603 16.5413 83.493 15.9276C84.4257 15.3139 85.1535 14.4399 85.5844 13.4163C86.0152 12.3927 86.1297 11.2655 85.9133 10.1774C85.6969 9.08932 85.1593 8.08931 84.3687 7.30397C83.5781 6.51863 82.5699 5.98328 81.4719 5.76571C80.3739 5.54814 79.2354 5.65812 78.2005 6.08174C77.1656 6.50536 76.281 7.22356 75.6585 8.14541C75.036 9.06726 74.7038 10.1513 74.7037 11.2603C74.6815 12.0009 74.8122 12.7381 75.0878 13.4269C75.3633 14.1157 75.7779 14.7416 76.3062 15.2662C76.8345 15.7908 77.4654 16.203 78.1602 16.4777C78.855 16.7524 79.5991 16.8838 80.3469 16.8638H80.3449ZM80.3449 16.66C79.2668 16.6598 78.213 16.343 77.3166 15.7496C76.4203 15.1563 75.7218 14.3131 75.3093 13.3266C74.8969 12.3401 74.789 11.2546 74.9995 10.2074C75.2099 9.16025 75.7292 8.19839 76.4916 7.44346C77.2541 6.68854 78.2254 6.17446 79.2828 5.96623C80.3402 5.758 81.4363 5.86497 82.4323 6.27362C83.4283 6.68226 84.2796 7.37423 84.8786 8.26201C85.4776 9.14981 85.7972 10.1935 85.7972 11.2613C85.8203 11.9763 85.6951 12.6884 85.4294 13.3536C85.1636 14.0188 84.763 14.623 84.2522 15.1289C83.7414 15.6347 83.1314 16.0315 82.4597 16.2946C81.788 16.5578 81.0689 16.6818 80.3469 16.659L80.3449 16.66ZM77.6983 14.9654H79.6798V11.3223H79.9492L81.5499 14.9654H83.6736L81.8512 11.1825C82.2345 11.0764 82.5734 10.8516 82.8185 10.541C83.0635 10.2305 83.2019 9.85043 83.2133 9.45645C83.1928 9.18065 83.1166 8.91174 82.9891 8.66571C82.8616 8.41969 82.6854 8.20158 82.471 8.02437C82.2567 7.84717 82.0085 7.71448 81.7413 7.6342C81.4741 7.55393 81.1933 7.52771 80.9156 7.55711H77.6983V14.9654ZM80.0437 7.76191C80.6939 7.76191 81.1691 8.49939 81.1691 9.45645C81.1691 10.4135 80.6939 11.1205 80.0437 11.1205H79.6798V7.76092H80.0437V7.76191Z" fill="black"/>
</svg>
